<svg id="Layer_1" data-name="Layer 1" xmlns="http://www.w3.org/2000/svg" xmlns:xlink="http://www.w3.org/1999/xlink" viewBox="0 0 170.3 48.2"><defs><radialGradient id="radial-gradient" cx="287.06" cy="202.34" r="41.46" gradientTransform="translate(7.3 7.2) scale(0.98 0.97)" gradientUnits="userSpaceOnUse"><stop offset="0" stop-color="#58b7dd"/><stop offset="0.13" stop-color="#54aed5"/><stop offset="0.33" stop-color="#4996be"/><stop offset="0.6" stop-color="#376e9a"/><stop offset="0.9" stop-color="#1e3768"/><stop offset="1" stop-color="#152456"/></radialGradient></defs><title>CJ-New-Logo</title><path d="M290.7,225.3a18.3,18.3,0,0,1-4.6,12.2,27.1,27.1,0,0,1-14.4,8.2,27.7,27.7,0,0,1-14.5-8.2,18.7,18.7,0,0,1-4.5-12.2v-3.7h12.6v3.7a6.4,6.4,0,0,0,12.8,0v-11H252.7V201.8h38Z" transform="translate(-252.7 -201.2)" fill="url(#radial-gradient)"/><path d="M409,208.4h3.7v2h.1a5.6,5.6,0,0,1,4.9-2.4c3.6,0,5.1,2.5,5.1,5.9v9.5h-3.9v-8c0-1.8,0-4.3-2.5-4.3s-3.5,3-3.5,5v7.3H409Zm-10.3,12.3c-2.9,0-3.7-2.7-3.7-5.2s1.2-4.4,3.7-4.4,3.8,2.1,3.8,4.4S401.7,220.7,398.7,220.7Zm0-12.7c-4.4,0-7.8,3-7.8,8a7.9,7.9,0,0,0,15.7,0C406.6,211,403.2,208,398.7,208Zm-10.2.6a15.6,15.6,0,0,0-4.2-.6c-3.1,0-5.9,1.5-5.9,4.7,0,5.4,6.8,3.4,6.8,6.4,0,1.4-1.6,1.8-2.6,1.8a8.6,8.6,0,0,1-3.8-1l-.3,3.2a16.9,16.9,0,0,0,4.5.7c3.1,0,6.3-1.4,6.3-4.9,0-5.5-6.8-3.9-6.8-6.3s1.2-1.7,2.3-1.7a9.9,9.9,0,0,1,3.5.6Zm-20.4,14.8H372v-5.5c0-2.2,0-6.1,3.1-6.1a4.2,4.2,0,0,1,1.8.3v-3.9a2.5,2.5,0,0,0-1.2-.2c-2.3,0-3.9,2.4-4.1,3.8h-.1v-3.4h-3.4Zm-12.4-9c.2-2,1.3-3.5,3.5-3.5s3.1,1.6,3.2,3.5Zm9.3,5a10.1,10.1,0,0,1-5,1.5,4,4,0,0,1-4.3-3.8h10.4c0-5.2-1.5-9.1-7.1-9.1s-7,3.6-7,8,2.9,7.8,7.8,7.8a10,10,0,0,0,5.2-1.2Zm-21.2,4h3.9V211.2h3.4v-2.8h-3.4v-1.9c0-1.2.4-2.3,1.7-2.3a2.8,2.8,0,0,1,1.7.5l.3-3.2a11.4,11.4,0,0,0-2.8-.3c-3.1,0-4.8,2.1-4.8,5.1v2.1h-2.9v2.8h2.9Zm-11.2,0h3.9V211.2h3.4v-2.8h-3.4v-1.9c0-1.2.4-2.3,1.8-2.3a2.7,2.7,0,0,1,1.6.5l.4-3.2a12.9,12.9,0,0,0-2.9-.3c-3.1,0-4.8,2.1-4.8,5.1v2.1h-2.9v2.8h2.9Zm-14.3-9c.2-2,1.3-3.5,3.5-3.5s3.1,1.6,3.2,3.5Zm9.3,5a10.5,10.5,0,0,1-5,1.5,4,4,0,0,1-4.3-3.8h10.4c0-5.2-1.6-9.1-7.1-9.1s-7,3.6-7,8,2.9,7.8,7.8,7.8a10.3,10.3,0,0,0,5.2-1.2Zm-24.3,4a11.5,11.5,0,0,0,3.1.4c4.2,0,5.6-3.1,5.6-5.2V201.8h-4.1v14.8c0,1.5,0,3.6-2.6,3.6a6,6,0,0,1-2-.3Z" transform="translate(-252.7 -201.2)" fill="#152456"/><path d="M305.3,230.8h-2V230h4.9v.8h-2v5.6h-.9Z" transform="translate(-252.7 -201.2)" fill="#152456"/><path d="M309.1,229.5h.8v2.9h0a1.9,1.9,0,0,1,1.5-.8c1.3,0,1.8.8,1.8,2v2.8h-.9V234c0-1.1-.2-1.6-1-1.7s-1.4.8-1.4,2v2.1h-.8Z" transform="translate(-252.7 -201.2)" fill="#152456"/><path d="M316.8,231.6a2.3,2.3,0,0,1,2.3,2.5,2.3,2.3,0,0,1-2.3,2.4,2.3,2.3,0,0,1-2.4-2.4A2.3,2.3,0,0,1,316.8,231.6Zm0,4.2c1,0,1.4-.9,1.4-1.7s-.5-1.8-1.4-1.8a1.6,1.6,0,0,0-1.5,1.8A1.5,1.5,0,0,0,316.8,235.8Z" transform="translate(-252.7 -201.2)" fill="#152456"/><path d="M320.3,231.7h.8v.7h0a1.6,1.6,0,0,1,1.5-.8,1.4,1.4,0,0,1,1.3.9,2,2,0,0,1,1.5-.9c1.2,0,1.6.8,1.6,1.8v3h-.9v-2.8c0-.5-.1-1.3-.8-1.3s-1.2.9-1.2,1.8v2.3h-.9v-2.8c0-.5-.1-1.3-.8-1.3s-1.3.9-1.3,1.8v2.3h-.8Z" transform="translate(-252.7 -201.2)" fill="#152456"/><path d="M328.7,232.1a2.5,2.5,0,0,1,1.5-.5c1.4,0,1.9.7,1.9,2v2.8h-.8v-.6h0a1.6,1.6,0,0,1-1.4.7c-1,0-1.7-.4-1.7-1.4s1.2-1.6,2.1-1.6h.9c0-.9-.2-1.3-1.1-1.3a2.4,2.4,0,0,0-1.4.5Zm2.5,2.1h-.5c-.5,0-1.6,0-1.6.9a.7.7,0,0,0,.8.7,1.1,1.1,0,0,0,1.3-1.2Z" transform="translate(-252.7 -201.2)" fill="#152456"/><path d="M333.2,235.5l1.1.3c.4,0,.9-.1.9-.6s-2-.8-2-2.1a1.4,1.4,0,0,1,1.6-1.5l1.1.2v.8a1.6,1.6,0,0,0-.9-.3c-.4,0-.8.2-.8.6s2,.7,2,2.2a1.4,1.4,0,0,1-1.6,1.4,2.7,2.7,0,0,1-1.3-.2Z" transform="translate(-252.7 -201.2)" fill="#152456"/><path d="M339.2,235.6h.5c.9,0,1.1-.4,1.1-1.2V230h.9v4.8c0,.9-.4,1.7-1.8,1.7h-.7Z" transform="translate(-252.7 -201.2)" fill="#152456"/><path d="M346.9,236.2a2.8,2.8,0,0,1-1.5.3A2.2,2.2,0,0,1,343,234a2.2,2.2,0,0,1,2.2-2.4c1.5,0,2,1.2,2,2.7h-3.3a1.5,1.5,0,0,0,1.5,1.5,3.9,3.9,0,0,0,1.5-.4Zm-.6-2.6a1.2,1.2,0,0,0-1.2-1.3c-.8,0-1.1.7-1.2,1.3Z" transform="translate(-252.7 -201.2)" fill="#152456"/><path d="M349,232.4h-1.1v-.7H349v-.4c0-1.1.2-1.9,1.5-1.9h.6v.7h-.4c-.8,0-.9.5-.9,1.1v.5h1.3v.7h-1.3v4H349Z" transform="translate(-252.7 -201.2)" fill="#152456"/><path d="M352.4,232.4h-1.1v-.7h1.1v-.4c0-1.1.3-1.9,1.5-1.9h.6v.7h-.4c-.8,0-.9.5-.9,1.1v.5h1.3v.7h-1.3v4h-.8Z" transform="translate(-252.7 -201.2)" fill="#152456"/><path d="M359,236.2a2.8,2.8,0,0,1-1.5.3,2.2,2.2,0,0,1-2.4-2.5,2.2,2.2,0,0,1,2.2-2.4c1.5,0,2,1.2,2,2.7H356a1.5,1.5,0,0,0,1.5,1.5,3.9,3.9,0,0,0,1.5-.4Zm-.6-2.6a1.2,1.2,0,0,0-1.2-1.3c-.8,0-1.1.7-1.2,1.3Z" transform="translate(-252.7 -201.2)" fill="#152456"/><path d="M360.5,231.7h.8v.8h0a1.5,1.5,0,0,1,1.2-.9h.6v.8h-.5c-.7,0-1.2.7-1.2,1.9v2.1h-.9Z" transform="translate(-252.7 -201.2)" fill="#152456"/><path d="M363.7,235.5l1.1.3c.4,0,.9-.1.9-.6s-2.1-.8-2.1-2.1a1.5,1.5,0,0,1,1.7-1.5l1.1.2v.8a1.6,1.6,0,0,0-.9-.3c-.4,0-.8.2-.8.6s2,.7,2,2.2a1.4,1.4,0,0,1-1.6,1.4,2.7,2.7,0,0,1-1.3-.2Z" transform="translate(-252.7 -201.2)" fill="#152456"/><path d="M369.7,231.6a2.4,2.4,0,0,1,2.4,2.5,2.4,2.4,0,0,1-4.8,0A2.4,2.4,0,0,1,369.7,231.6Zm0,4.2a1.6,1.6,0,0,0,1.5-1.7,1.7,1.7,0,0,0-1.5-1.8c-.9,0-1.4.9-1.4,1.8S368.7,235.8,369.7,235.8Z" transform="translate(-252.7 -201.2)" fill="#152456"/><path d="M373.3,231.7h.8v.8h0a1.9,1.9,0,0,1,1.6-.9c1.2,0,1.7.8,1.7,2v2.8h-.9V234c0-1.1-.2-1.6-.9-1.7s-1.5.8-1.5,2v2.1h-.8Z" transform="translate(-252.7 -201.2)" fill="#152456"/><path d="M386.5,233.8c0,1.8-.9,2.7-2.5,2.7s-2.5-.9-2.5-2.7V230h.9v3.7c0,1.2.4,2,1.6,2s1.6-.8,1.6-2V230h.9Z" transform="translate(-252.7 -201.2)" fill="#152456"/><path d="M388.1,231.7h.8v.8h0a1.9,1.9,0,0,1,1.6-.9c1.2,0,1.7.8,1.7,2v2.8h-.8V234c0-1.1-.3-1.6-1-1.7s-1.5.8-1.5,2v2.1h-.8Z" transform="translate(-252.7 -201.2)" fill="#152456"/><path d="M394.7,230.7h-1v-1h1Zm-.9,1h.9v4.7h-.9Z" transform="translate(-252.7 -201.2)" fill="#152456"/><path d="M398.3,236.4h-1l-1.7-4.7h1l1.2,3.9h0l1.3-3.9h.9Z" transform="translate(-252.7 -201.2)" fill="#152456"/><path d="M404.4,236.2a2.4,2.4,0,0,1-1.4.3,2.3,2.3,0,0,1-2.5-2.5,2.2,2.2,0,0,1,2.2-2.4c1.6,0,2.1,1.2,2.1,2.7h-3.4a1.6,1.6,0,0,0,1.6,1.5,3.4,3.4,0,0,0,1.4-.4Zm-.5-2.6a1.2,1.2,0,0,0-1.2-1.3,1.4,1.4,0,0,0-1.3,1.3Z" transform="translate(-252.7 -201.2)" fill="#152456"/><path d="M406,231.7h.8v.8h0a1.4,1.4,0,0,1,1.2-.9h.6v.8h-.5c-.8,0-1.3.7-1.3,1.9v2.1H406Z" transform="translate(-252.7 -201.2)" fill="#152456"/><path d="M409.2,235.5a2.3,2.3,0,0,0,1.1.3c.4,0,.8-.1.8-.6s-2-.8-2-2.1.7-1.5,1.7-1.5l1,.2v.8a1.6,1.6,0,0,0-.9-.3c-.5,0-.9.2-.9.6s2.1.7,2.1,2.2-.8,1.4-1.7,1.4a3,3,0,0,1-1.3-.2Z" transform="translate(-252.7 -201.2)" fill="#152456"/><path d="M414.1,230.7h-.9v-1h.9Zm-.9,1h.9v4.7h-.9Z" transform="translate(-252.7 -201.2)" fill="#152456"/><path d="M418.2,232.4h-1.3V235a.7.7,0,0,0,.7.8h.6v.7h-.7c-.9,0-1.5-.4-1.5-1.3v-2.8h-1v-.7h1v-1l.9-.3v1.3h1.3Z" transform="translate(-252.7 -201.2)" fill="#152456"/><path d="M418.9,237.7h.4c.8,0,1-1.1,1-1.2a4.3,4.3,0,0,1-.1-.5l-1.6-4.4h.9l1.3,3.9h0l1.3-3.9h.9l-1.8,4.8c-.3.9-.6,2-1.8,2h-.6Z" transform="translate(-252.7 -201.2)" fill="#152456"/><path d="M303.9,245.5h.5v1.6h1.9v-1.6h.5v3.8h-.5v-1.7h-1.9v1.7h-.5Z" transform="translate(-252.7 -201.2)" fill="#152456"/><path d="M309.5,245.5a1.8,1.8,0,0,1,1.8,1.9,1.8,1.8,0,0,1-1.8,2,1.8,1.8,0,0,1-1.9-2A1.8,1.8,0,0,1,309.5,245.5Zm0,3.4c.9,0,1.2-.7,1.2-1.5s-.4-1.5-1.2-1.4-1.3.7-1.3,1.4S308.6,248.9,309.5,248.9Z" transform="translate(-252.7 -201.2)" fill="#152456"/><path d="M312.1,245.5h.9l1.2,3.2,1.2-3.2h.9v3.8h-.5v-3.2h0l-1.3,3.2H314l-1.3-3.2h0v3.2h-.6Z" transform="translate(-252.7 -201.2)" fill="#152456"/><path d="M317.4,245.5h2.1v.5h-1.6v1.1h1.5v.5h-1.5v1.3h1.6v.4h-2.1Z" transform="translate(-252.7 -201.2)" fill="#152456"/><path d="M323.6,245.5a1.8,1.8,0,0,1,1.9,1.9,1.8,1.8,0,0,1-1.9,2,1.8,1.8,0,0,1-1.8-2A1.8,1.8,0,0,1,323.6,245.5Zm0,3.4c.9,0,1.3-.7,1.3-1.5s-.4-1.5-1.3-1.4-1.2.7-1.2,1.4S322.7,248.9,323.6,248.9Z" transform="translate(-252.7 -201.2)" fill="#152456"/><path d="M326.2,245.5h2.1v.5h-1.5v1.1h1.4v.5h-1.4v1.7h-.6Z" transform="translate(-252.7 -201.2)" fill="#152456"/><path d="M332.3,246.1h-.7c-.3,0-.6.1-.6.5s1.6.5,1.6,1.8-.6,1.1-1.4,1.1h-.8v-.6l.8.2c.3,0,.7-.1.7-.6s-1.6-.6-1.6-1.8.5-1,1.2-1h.8Z" transform="translate(-252.7 -201.2)" fill="#152456"/><path d="M333.4,245.5h.5v3.8h-.5Z" transform="translate(-252.7 -201.2)" fill="#152456"/><path d="M334.9,245.5H336a1.9,1.9,0,0,1,2.1,1.9c0,1.3-.8,1.9-2.1,1.9h-1.1Zm.6,3.4h.5a1.3,1.3,0,0,0,1.5-1.5,1.3,1.3,0,0,0-1.4-1.4h-.6Z" transform="translate(-252.7 -201.2)" fill="#152456"/><path d="M338.9,245.5h.8l1.7,3.1h0v-3.1h.5v3.8h-.7l-1.7-3.1h0v3.1h-.6Z" transform="translate(-252.7 -201.2)" fill="#152456"/><path d="M343,245.5h2.1v.5h-1.6v1.1h1.4v.5h-1.4v1.3h1.6v.4H343Z" transform="translate(-252.7 -201.2)" fill="#152456"/><path d="M347.1,247.8l-1.5-2.3h.6l1.2,1.7,1.1-1.7h.6l-1.5,2.3v1.5h-.5Z" transform="translate(-252.7 -201.2)" fill="#152456"/><path d="M351.3,245.5h.5v1.7l1.7-1.7h.7l-1.8,1.8,1.9,2h-.8l-1.7-1.8v1.8h-.5Z" transform="translate(-252.7 -201.2)" fill="#152456"/><path d="M354.9,245.5h.6v3.8h-.6Z" transform="translate(-252.7 -201.2)" fill="#152456"/><path d="M356.5,245.5h.9l1.2,3.2,1.2-3.2h.9v3.8h-.6v-3.2h0l-1.2,3.2h-.6l-1.2-3.2h0v3.2h-.6Z" transform="translate(-252.7 -201.2)" fill="#152456"/><path d="M361.7,245.5h.9l1.2,3.2,1.2-3.2h.9v3.8h-.6v-3.2h0l-1.2,3.2h-.6l-1.2-3.2h0v3.2h-.6Z" transform="translate(-252.7 -201.2)" fill="#152456"/><path d="M366.9,245.5h2.2v.5h-1.6v1.1h1.4v.5h-1.4v1.3h1.6v.4h-2.2Z" transform="translate(-252.7 -201.2)" fill="#152456"/><path d="M370,245.5h.5v3.4h1.6v.4H370Z" transform="translate(-252.7 -201.2)" fill="#152456"/><path d="M374.3,245.5h.9l1.2,3.2,1.2-3.2h.9v3.8h-.6v-3.2h0l-1.2,3.2h-.6l-1.2-3.2h0v3.2h-.6Z" transform="translate(-252.7 -201.2)" fill="#152456"/><path d="M379.5,245.5h2.2v.5h-1.6v1.1h1.4v.5h-1.4v1.3h1.6v.4h-2.2Z" transform="translate(-252.7 -201.2)" fill="#152456"/><path d="M382.6,245.5h1.1a1.9,1.9,0,0,1,2,1.9,1.8,1.8,0,0,1-2,1.9h-1.1Zm.5,3.4h.6c.9,0,1.4-.5,1.4-1.5a1.3,1.3,0,0,0-1.3-1.4h-.7Z" transform="translate(-252.7 -201.2)" fill="#152456"/><path d="M386.6,245.5h.5v3.8h-.5Z" transform="translate(-252.7 -201.2)" fill="#152456"/><path d="M390.8,246.2a1.2,1.2,0,0,0-.8-.2,1.4,1.4,0,0,0-1.5,1.4,1.5,1.5,0,0,0,1.5,1.5,1.2,1.2,0,0,0,.8-.2v.6H390a1.9,1.9,0,0,1-2-2,1.9,1.9,0,0,1,2-1.9h.8Z" transform="translate(-252.7 -201.2)" fill="#152456"/><path d="M392.7,245.5h.6l1.6,3.8h-.6l-.4-.9h-1.8l-.4.9h-.6Zm.3.6-.8,1.8h1.6Z" transform="translate(-252.7 -201.2)" fill="#152456"/><path d="M395.5,245.5h.6v3.4h1.6v.4h-2.2Z" transform="translate(-252.7 -201.2)" fill="#152456"/><path d="M402.5,246.2a1.2,1.2,0,0,0-.8-.2,1.4,1.4,0,0,0-1.5,1.4,1.5,1.5,0,0,0,1.5,1.5,1.2,1.2,0,0,0,.8-.2v.6h-.8a1.9,1.9,0,0,1-2-2,1.9,1.9,0,0,1,2-1.9h.8Z" transform="translate(-252.7 -201.2)" fill="#152456"/><path d="M404.9,245.5a1.8,1.8,0,0,1,1.8,1.9,1.8,1.8,0,0,1-1.8,2,1.8,1.8,0,0,1-1.9-2A1.8,1.8,0,0,1,404.9,245.5Zm0,3.4c.9,0,1.2-.7,1.2-1.5s-.4-1.5-1.2-1.4-1.3.7-1.3,1.4S404,248.9,404.9,248.9Z" transform="translate(-252.7 -201.2)" fill="#152456"/><path d="M407.5,245.5h.6v3.4h1.6v.4h-2.2Z" transform="translate(-252.7 -201.2)" fill="#152456"/><path d="M410.3,245.5h.5v3.4h1.6v.4h-2.1Z" transform="translate(-252.7 -201.2)" fill="#152456"/><path d="M413.1,245.5h2.1v.5h-1.5v1.1h1.4v.5h-1.4v1.3h1.5v.4h-2.1Z" transform="translate(-252.7 -201.2)" fill="#152456"/><path d="M419.1,246.2a1.8,1.8,0,0,0-1.1-.2,1.4,1.4,0,0,0-1.5,1.4,1.5,1.5,0,0,0,1.5,1.5h.6v-1.2h-.8v-.4h1.3v1.9a2.3,2.3,0,0,1-1.1.2,1.9,1.9,0,0,1-2-2,1.9,1.9,0,0,1,2-1.9l1.1.2Z" transform="translate(-252.7 -201.2)" fill="#152456"/><path d="M420.2,245.5h2.1v.5h-1.6v1.1h1.5v.5h-1.5v1.3h1.6v.4h-2.1Z" transform="translate(-252.7 -201.2)" fill="#152456"/><line x1="50.6" y1="41.7" x2="169.9" y2="41.7" fill="none" stroke="#58b7dd" stroke-miterlimit="10" stroke-width="0.5"/><polygon points="33.7 41.5 34.2 41.5 35.3 44.1 36.4 41.5 36.8 41.5 36.8 44.5 36.5 44.5 36.5 41.8 36.5 41.8 35.4 44.5 35.2 44.5 34 41.8 34 41.8 34 44.5 33.7 44.5 33.7 41.5" fill="#152456"/><polygon points="32.1 41.7 31.3 41.7 31.3 41.5 33.3 41.5 33.3 41.7 32.4 41.7 32.4 44.5 32.1 44.5 32.1 41.7" fill="#152456"/></svg>